<svg version="1.1" id="Layer_1" xmlns="http://www.w3.org/2000/svg" xmlns:xlink="http://www.w3.org/1999/xlink" x="0px" y="0px"
	 width="100%" viewBox="0 0 3840 2160" enable-background="new 0 0 3840 2160" xml:space="preserve">
<path fill="#FFFFFF" opacity="1.000000" stroke="none" 
	d="
M2.000006,1674.000000 
	C2.000000,1116.727783 2.000000,559.455566 2.000000,2.091686 
	C1281.798462,2.091686 2561.596924,2.091686 3842.000000,2.091686 
	C3842.000000,607.398682 3842.000000,1212.797485 3841.223145,1819.423828 
	C3822.200684,1815.524658 3803.712158,1811.124512 3785.759277,1805.123413 
	C3745.671387,1791.723755 3709.490234,1770.691406 3674.526611,1747.190918 
	C3643.033203,1726.022583 3611.474609,1704.830200 3578.858398,1685.478882 
	C3511.305908,1645.399536 3437.906982,1623.201904 3359.469727,1618.141724 
	C3281.639404,1613.120728 3206.057617,1625.004883 3132.321289,1649.525879 
	C3107.187500,1657.884277 3082.647705,1667.565430 3058.715088,1679.340576 
	C3031.923584,1692.522461 3003.568604,1702.599854 2975.662354,1713.430908 
	C2854.447754,1760.477417 2730.998291,1799.846436 2602.334473,1821.093140 
	C2560.552490,1827.992676 2518.544922,1833.300171 2476.191895,1833.867432 
	C2444.910400,1834.286255 2413.512939,1833.815674 2382.332764,1831.505859 
	C2357.854004,1829.692261 2333.412842,1825.505615 2309.333496,1820.538452 
	C2249.172363,1808.127808 2194.598633,1782.713867 2144.244629,1747.654175 
	C2110.909668,1724.444214 2077.331299,1701.568848 2041.798950,1681.702026 
	C1975.355225,1644.552368 1904.308105,1623.038330 1828.326294,1618.131104 
	C1750.834473,1613.126343 1675.564819,1624.954590 1602.128052,1649.237061 
	C1576.405029,1657.742554 1550.392700,1665.837769 1527.149292,1680.431152 
	C1437.904419,1718.139160 1347.283081,1752.086426 1254.185669,1779.084351 
	C1162.240601,1805.747925 1069.089600,1826.285156 973.232788,1832.619995 
	C918.189819,1836.257690 863.410461,1835.004272 808.825684,1826.266724 
	C743.113464,1815.748047 682.262085,1793.098022 626.845886,1755.948975 
	C593.934448,1733.886230 561.178162,1711.505615 527.355164,1690.904663 
	C417.399719,1623.932617 298.194672,1604.324219 171.917908,1624.517212 
	C117.479988,1633.222168 65.020477,1649.256958 14.239851,1670.767334 
	C10.393558,1672.396606 6.090655,1672.947754 2.000006,1674.000000 
z"/>
<path fill="#000000" opacity="1.000000" stroke="none" 
	d="
M2.000006,1674.937256 
	C6.090655,1672.947754 10.393558,1672.396606 14.239851,1670.767334 
	C65.020477,1649.256958 117.479988,1633.222168 171.917908,1624.517212 
	C298.194672,1604.324219 417.399719,1623.932617 527.355164,1690.904663 
	C561.178162,1711.505615 593.934448,1733.886230 626.845886,1755.948975 
	C682.262085,1793.098022 743.113464,1815.748047 808.825684,1826.266724 
	C863.410461,1835.004272 918.189819,1836.257690 973.232788,1832.619995 
	C1069.089600,1826.285156 1162.240601,1805.747925 1254.185669,1779.084351 
	C1347.283081,1752.086426 1437.904419,1718.139160 1527.149292,1680.431152 
	C1550.392700,1665.837769 1576.405029,1657.742554 1602.128052,1649.237061 
	C1675.564819,1624.954590 1750.834473,1613.126343 1828.326294,1618.131104 
	C1904.308105,1623.038330 1975.355225,1644.552368 2041.798950,1681.702026 
	C2077.331299,1701.568848 2110.909668,1724.444214 2144.244629,1747.654175 
	C2194.598633,1782.713867 2249.172363,1808.127808 2309.333496,1820.538452 
	C2333.412842,1825.505615 2357.854004,1829.692261 2382.332764,1831.505859 
	C2413.512939,1833.815674 2444.910400,1834.286255 2476.191895,1833.867432 
	C2518.544922,1833.300171 2560.552490,1827.992676 2602.334473,1821.093140 
	C2730.998291,1799.846436 2854.447754,1760.477417 2975.662354,1713.430908 
	C3003.568604,1702.599854 3031.923584,1692.522461 3058.715088,1679.340576 
	C3082.647705,1667.565430 3107.187500,1657.884277 3132.321289,1649.525879 
	C3206.057617,1625.004883 3281.639404,1613.120728 3359.469727,1618.141724 
	C3437.906982,1623.201904 3511.305908,1645.399536 3578.858398,1685.478882 
	C3611.474609,1704.830200 3643.033203,1726.022583 3674.526611,1747.190918 
	C3709.490234,1770.691406 3745.671387,1791.723755 3785.759277,1805.123413 
	C3803.712158,1811.124512 3822.200684,1815.524658 3841.223145,1820.325684 
	C3842.000000,1933.978638 3842.000000,2047.957397 3842.000000,2161.891113 
	C2562.000000,2161.891113 1282.000000,2161.891113 2.000000,2161.891113 
	C2.000000,1999.812988 2.000000,1837.843872 2.000006,1674.937256 
z"/>
</svg>