<?xml version="1.0" encoding="UTF-8"?>
<!DOCTYPE svg PUBLIC "-//W3C//DTD SVG 1.1//EN" "http://www.w3.org/Graphics/SVG/1.1/DTD/svg11.dtd">
<svg xmlns="http://www.w3.org/2000/svg" version="1.1" width="1200px" height="600px" style="shape-rendering:geometricPrecision; text-rendering:geometricPrecision; image-rendering:optimizeQuality; fill-rule:evenodd; clip-rule:evenodd" xmlns:xlink="http://www.w3.org/1999/xlink">
<g><path style="opacity:1" fill="#376633" d="M 559.5,55.5 C 561.167,55.5 562.833,55.5 564.5,55.5C 564.5,218.167 564.5,380.833 564.5,543.5C 562.833,543.5 561.167,543.5 559.5,543.5C 559.5,380.833 559.5,218.167 559.5,55.5 Z"/></g>
<g><path style="opacity:0.974" fill="#376633" d="M 227.5,91.5 C 249.167,91.5 270.833,91.5 292.5,91.5C 299.783,110.272 306.616,129.272 313,148.5C 315.654,154.816 318.487,160.983 321.5,167C 326.036,168.065 330.202,169.898 334,172.5C 335.329,171.506 336.662,170.506 338,169.5C 362.48,159.177 386.646,148.177 410.5,136.5C 419.418,144.648 428.418,152.814 437.5,161C 443.736,168.063 450.069,174.897 456.5,181.5C 445.02,207.95 433.353,234.283 421.5,260.5C 422.138,264.273 423.972,267.273 427,269.5C 452.024,279.049 477.524,288.382 503.5,297.5C 503.667,319.169 503.5,340.836 503,362.5C 478.301,372.018 453.134,381.518 427.5,391C 423.248,399.294 418.915,407.461 414.5,415.5C 414.738,413.435 414.238,411.435 413,409.5C 374.053,389.636 334.886,369.469 295.5,349C 290.141,344.304 284.808,339.638 279.5,335C 274.552,333.361 269.885,331.361 265.5,329C 273.208,303.926 286.542,282.259 305.5,264C 306.965,263.399 307.965,263.899 308.5,265.5C 300.566,274.368 295.566,284.702 293.5,296.5C 297.56,296.515 301.56,296.015 305.5,295C 307.061,294.682 308.228,293.849 309,292.5C 309.333,292.833 309.667,293.167 310,293.5C 318.614,288.307 324.948,280.974 329,271.5C 334.516,258.429 337.35,244.762 337.5,230.5C 320.918,232.016 305.085,236.349 290,243.5C 274.528,252.783 268.695,266.116 272.5,283.5C 269.249,289.659 265.249,295.325 260.5,300.5C 257.675,294.526 255.342,288.36 253.5,282C 251.285,279.072 249.452,275.905 248,272.5C 254.865,244.348 245.698,224.182 220.5,212C 203.724,205.392 186.391,201.225 168.5,199.5C 168.412,221.243 173.578,241.576 184,260.5C 192.936,275.526 205.77,283.026 222.5,283C 221.102,269.942 218.102,257.275 213.5,245C 213.833,244.167 214.167,243.333 214.5,242.5C 228.529,262.242 239.529,283.575 247.5,306.5C 248.944,314.829 250.277,323.163 251.5,331.5C 246.808,331.924 242.475,333.424 238.5,336C 233.298,340.037 228.631,344.537 224.5,349.5C 212.649,354.341 201.482,360.341 191,367.5C 190.667,367.167 190.333,366.833 190,366.5C 171.674,377.34 152.84,387.34 133.5,396.5C 124.839,401.491 116.172,406.491 107.5,411.5C 106.522,411.023 105.689,410.357 105,409.5C 102.916,403.74 100.749,398.073 98.5,392.5C 72.399,382.368 46.2324,372.368 20,362.5C 19.5,340.836 19.3334,319.169 19.5,297.5C 33.7448,292.807 47.9115,287.807 62,282.5C 62.9454,282.095 63.6121,281.428 64,280.5C 64.3333,280.833 64.6667,281.167 65,281.5C 75.6356,277.509 86.3023,273.509 97,269.5C 98.8539,267.977 100.354,266.144 101.5,264C 89.45,237.189 77.7833,210.189 66.5,183C 66.6667,182.167 66.8333,181.333 67,180.5C 81.9791,167.688 96.1458,154.021 109.5,139.5C 111.958,138.791 114.125,138.791 116,139.5C 119.824,142.08 123.824,144.414 128,146.5C 134.244,148.289 140.41,151.122 146.5,155C 160.419,160.627 174.086,166.793 187.5,173.5C 191.313,171.282 195.313,169.616 199.5,168.5C 208.679,142.786 218.013,117.12 227.5,91.5 Z"/></g>
<g><path style="opacity:0.98" fill="#376633" d="M 597.5,155.5 C 608.167,155.5 618.833,155.5 629.5,155.5C 629.5,168.5 629.5,181.5 629.5,194.5C 641.5,194.5 653.5,194.5 665.5,194.5C 665.5,181.5 665.5,168.5 665.5,155.5C 676.167,155.5 686.833,155.5 697.5,155.5C 697.5,190.833 697.5,226.167 697.5,261.5C 686.833,261.5 676.167,261.5 665.5,261.5C 665.5,248.5 665.5,235.5 665.5,222.5C 653.5,222.5 641.5,222.5 629.5,222.5C 629.5,235.5 629.5,248.5 629.5,261.5C 618.833,261.5 608.167,261.5 597.5,261.5C 597.5,226.167 597.5,190.833 597.5,155.5 Z"/></g>
<g><path style="opacity:0.957" fill="#376633" d="M 909.5,162.5 C 910.833,162.5 912.167,162.5 913.5,162.5C 913.5,170.167 913.5,177.833 913.5,185.5C 918.833,185.5 924.167,185.5 929.5,185.5C 929.5,193.167 929.5,200.833 929.5,208.5C 924.167,208.5 918.833,208.5 913.5,208.5C 913.086,217.582 913.586,226.582 915,235.5C 915.833,236.333 916.667,237.167 917.5,238C 921.486,238.499 925.486,238.666 929.5,238.5C 929.831,245.863 929.497,253.197 928.5,260.5C 919.277,262.48 909.943,262.98 900.5,262C 891.307,259.474 885.474,253.64 883,244.5C 881.662,232.543 881.162,220.543 881.5,208.5C 877.833,208.5 874.167,208.5 870.5,208.5C 870.5,200.833 870.5,193.167 870.5,185.5C 874.167,185.5 877.833,185.5 881.5,185.5C 881.173,180.456 881.506,175.456 882.5,170.5C 891.658,167.966 900.658,165.299 909.5,162.5 Z"/></g>
<g><path style="opacity:0.964" fill="#376633" d="M 743.5,183.5 C 758.635,181.251 772.635,184.085 785.5,192C 798.79,205.505 802.29,221.339 796,239.5C 790.139,252.183 780.306,259.683 766.5,262C 757.105,262.886 747.772,262.553 738.5,261C 724.151,256.65 715.317,247.15 712,232.5C 707.98,206.489 718.48,190.156 743.5,183.5 Z M 750.5,207.5 C 756.898,206.053 761.731,208.053 765,213.5C 767.301,221.097 766.634,228.431 763,235.5C 757.667,239.5 752.333,239.5 747,235.5C 743.421,228.781 742.755,221.781 745,214.5C 745.967,211.379 747.8,209.046 750.5,207.5 Z"/></g>
<g><path style="opacity:0.952" fill="#376633" d="M 959.5,183.5 C 969.233,183.109 978.9,183.609 988.5,185C 1000.54,188.712 1007.04,196.879 1008,209.5C 1008.5,226.83 1008.67,244.163 1008.5,261.5C 998.833,261.5 989.167,261.5 979.5,261.5C 979.665,258.15 979.498,254.817 979,251.5C 971.251,261.529 961.084,265.029 948.5,262C 940.565,259.732 935.732,254.565 934,246.5C 930.983,228.364 938.483,217.531 956.5,214C 964.156,212.918 971.822,211.918 979.5,211C 977.162,204.745 972.662,202.245 966,203.5C 957.038,203.657 948.704,205.99 941,210.5C 940.169,203.144 940.335,195.811 941.5,188.5C 947.536,186.494 953.536,184.828 959.5,183.5 Z M 972.5,227.5 C 974.833,227.5 977.167,227.5 979.5,227.5C 979.382,233.239 977.048,237.739 972.5,241C 965.23,243.371 961.73,240.871 962,233.5C 962.465,232.069 963.299,230.903 964.5,230C 967.31,229.218 969.977,228.384 972.5,227.5 Z"/></g>
<g><path style="opacity:0.962" fill="#376633" d="M 854.5,184.5 C 858.5,184.5 862.5,184.5 866.5,184.5C 866.666,194.172 866.5,203.839 866,213.5C 859.281,210.547 852.781,210.881 846.5,214.5C 845.139,216.028 843.972,217.695 843,219.5C 841.591,233.449 841.091,247.449 841.5,261.5C 830.833,261.5 820.167,261.5 809.5,261.5C 809.5,236.167 809.5,210.833 809.5,185.5C 820.167,185.5 830.833,185.5 841.5,185.5C 841.335,188.85 841.502,192.183 842,195.5C 845.148,190.509 849.314,186.843 854.5,184.5 Z"/></g>
<g><path style="opacity:0.853" fill="#376633" d="M 259.5,333.5 C 261.22,335.658 262.053,338.325 262,341.5C 265.475,385.783 268.142,430.45 270,475.5C 270.422,483.07 271.255,490.57 272.5,498C 272.167,500.5 271.833,503 271.5,505.5C 263.807,508.128 256.141,508.128 248.5,505.5C 248.167,504.5 247.833,503.5 247.5,502.5C 251.832,446.184 255.832,389.851 259.5,333.5 Z"/></g>
<g><path style="opacity:0.96" fill="#376633" d="M 636.5,333.5 C 649.606,332.932 662.606,333.765 675.5,336C 676.652,346.423 676.819,356.923 676,367.5C 665.155,361.407 653.655,359.907 641.5,363C 631.142,368.036 625.809,376.369 625.5,388C 626.109,400.931 632.443,409.598 644.5,414C 650.167,414.667 655.833,414.667 661.5,414C 666.559,412.59 671.559,411.09 676.5,409.5C 676.832,419.19 676.498,428.856 675.5,438.5C 670.919,439.979 666.252,441.145 661.5,442C 640.699,446.131 622.032,441.797 605.5,429C 590.594,409.742 587.427,388.576 596,365.5C 604.084,347.91 617.584,337.243 636.5,333.5 Z"/></g>
<g><path style="opacity:0.882" fill="#376633" d="M 240.5,340.5 C 241.675,340.281 242.675,340.614 243.5,341.5C 213.54,386.437 182.873,430.77 151.5,474.5C 141.943,470.611 134.943,463.945 130.5,454.5C 129.167,452.833 129.167,451.167 130.5,449.5C 161.241,419.262 192.241,389.095 223.5,359C 229.741,353.263 235.408,347.097 240.5,340.5 Z"/></g>
<g><path style="opacity:0.88" fill="#376633" d="M 275.5,341.5 C 276.675,341.281 277.675,341.614 278.5,342.5C 315.149,378.91 351.982,414.91 389,450.5C 386.745,463.1 379.412,471.434 367,475.5C 366.5,475.167 366,474.833 365.5,474.5C 336.574,430.978 306.907,387.978 276.5,345.5C 275.754,344.264 275.421,342.93 275.5,341.5 Z"/></g>
<g><path style="opacity:0.957" fill="#376633" d="M 1164.5,342.5 C 1165.83,342.5 1167.17,342.5 1168.5,342.5C 1168.5,350.167 1168.5,357.833 1168.5,365.5C 1173.83,365.5 1179.17,365.5 1184.5,365.5C 1184.5,373.167 1184.5,380.833 1184.5,388.5C 1179.17,388.5 1173.83,388.5 1168.5,388.5C 1168.09,397.582 1168.59,406.582 1170,415.5C 1170.83,416.333 1171.67,417.167 1172.5,418C 1176.49,418.499 1180.49,418.666 1184.5,418.5C 1184.83,425.863 1184.5,433.197 1183.5,440.5C 1174.28,442.48 1164.94,442.98 1155.5,442C 1146.31,439.474 1140.47,433.64 1138,424.5C 1136.66,412.543 1136.16,400.543 1136.5,388.5C 1132.83,388.5 1129.17,388.5 1125.5,388.5C 1125.5,380.833 1125.5,373.167 1125.5,365.5C 1129.17,365.5 1132.83,365.5 1136.5,365.5C 1136.17,360.456 1136.51,355.456 1137.5,350.5C 1146.66,347.966 1155.66,345.299 1164.5,342.5 Z"/></g>
<g><path style="opacity:0.964" fill="#376633" d="M 717.5,363.5 C 732.635,361.251 746.635,364.085 759.5,372C 772.79,385.505 776.29,401.339 770,419.5C 764.139,432.183 754.306,439.683 740.5,442C 731.105,442.886 721.772,442.553 712.5,441C 698.151,436.65 689.317,427.15 686,412.5C 681.98,386.489 692.48,370.156 717.5,363.5 Z M 724.5,387.5 C 730.898,386.053 735.731,388.053 739,393.5C 741.301,401.097 740.634,408.431 737,415.5C 731.667,419.5 726.333,419.5 721,415.5C 717.421,408.781 716.755,401.781 719,394.5C 719.967,391.379 721.8,389.046 724.5,387.5 Z"/></g>
<g><path style="opacity:0.96" fill="#376633" d="M 832.5,363.5 C 852.016,359.99 862.849,367.99 865,387.5C 865.5,405.497 865.667,423.497 865.5,441.5C 854.833,441.5 844.167,441.5 833.5,441.5C 833.667,426.83 833.5,412.163 833,397.5C 832.856,388.851 828.689,385.851 820.5,388.5C 818.703,390.131 817.536,392.131 817,394.5C 816.5,410.163 816.333,425.83 816.5,441.5C 805.833,441.5 795.167,441.5 784.5,441.5C 784.5,416.167 784.5,390.833 784.5,365.5C 795.167,365.5 805.833,365.5 816.5,365.5C 816.335,368.85 816.502,372.183 817,375.5C 820.659,369.435 825.826,365.435 832.5,363.5 Z"/></g>
<g><path style="opacity:0.96" fill="#376633" d="M 925.5,363.5 C 945.016,359.99 955.849,367.99 958,387.5C 958.5,405.497 958.667,423.497 958.5,441.5C 947.833,441.5 937.167,441.5 926.5,441.5C 926.667,426.83 926.5,412.163 926,397.5C 925.856,388.851 921.689,385.851 913.5,388.5C 911.703,390.131 910.536,392.131 910,394.5C 909.5,410.163 909.333,425.83 909.5,441.5C 898.833,441.5 888.167,441.5 877.5,441.5C 877.5,416.167 877.5,390.833 877.5,365.5C 888.167,365.5 898.833,365.5 909.5,365.5C 909.335,368.85 909.502,372.183 910,375.5C 913.659,369.435 918.826,365.435 925.5,363.5 Z"/></g>
<g><path style="opacity:0.951" fill="#376633" d="M 998.5,363.5 C 1034.14,360.48 1049.81,376.814 1045.5,412.5C 1030.16,412.333 1014.83,412.5 999.5,413C 1001.65,417.154 1004.99,419.82 1009.5,421C 1019.36,422.083 1029.03,421.249 1038.5,418.5C 1038.83,425.2 1038.5,431.866 1037.5,438.5C 1033.3,440.134 1028.97,441.301 1024.5,442C 1014.12,442.87 1003.78,442.536 993.5,441C 972.637,432.45 964.471,416.95 969,394.5C 972.579,378.09 982.413,367.756 998.5,363.5 Z M 1005.5,383.5 C 1013.49,382.991 1017.49,386.825 1017.5,395C 1011.51,395.499 1005.51,395.666 999.5,395.5C 999.428,390.338 1001.43,386.338 1005.5,383.5 Z"/></g>
<g><path style="opacity:0.952" fill="#376633" d="M 1085.5,363.5 C 1096.6,363.016 1107.6,363.683 1118.5,365.5C 1118.67,374.173 1118.5,382.84 1118,391.5C 1110.96,387.766 1103.46,386.6 1095.5,388C 1084.57,393.856 1082.07,402.356 1088,413.5C 1092,417.444 1096.83,419.11 1102.5,418.5C 1108,418.332 1113.33,417.332 1118.5,415.5C 1118.83,423.528 1118.5,431.528 1117.5,439.5C 1114.63,440.775 1111.63,441.608 1108.5,442C 1099.83,442.667 1091.17,442.667 1082.5,442C 1058.81,434.94 1048.97,419.107 1053,394.5C 1057.56,377.432 1068.4,367.099 1085.5,363.5 Z"/></g>
<g><path style="opacity:0.013" fill="#376633" d="M 170.5,478.5 C 173.574,478.827 175.908,480.327 177.5,483C 176.423,484.543 175.089,484.543 173.5,483C 171.859,481.871 170.859,480.371 170.5,478.5 Z"/></g>
</svg>
