<?xml version="1.0" standalone="no"?>
<!DOCTYPE svg PUBLIC "-//W3C//DTD SVG 20010904//EN"
 "http://www.w3.org/TR/2001/REC-SVG-20010904/DTD/svg10.dtd">
<svg version="1.0" xmlns="http://www.w3.org/2000/svg"
 width="2002.000000pt" height="1909.000000pt" viewBox="0 0 2002.000000 1909.000000"
 preserveAspectRatio="xMidYMid meet">

<g transform="translate(0.000000,1909.000000) scale(0.100000,-0.100000)"
fill="blue" stroke="none">
<path d="M8639 19062 c-119 -316 -1203 -3161 -1208 -3170 -4 -8 -71 -40 -147
-71 -76 -31 -192 -81 -258 -111 -101 -46 -122 -52 -145 -43 -14 5 -718 333
-1563 727 l-1537 718 -920 -887 c-507 -488 -921 -890 -921 -894 0 -3 323 -754
717 -1668 567 -1312 720 -1659 731 -1651 7 6 14 9 16 7 8 -9 -104 -265 -121
-275 -10 -6 -753 -290 -1650 -630 l-1633 -619 3 -1289 2 -1289 1632 -621 1631
-620 32 -86 c52 -136 173 -415 237 -546 l60 -120 2488 1317 2489 1317 40 54
c205 272 490 477 804 577 l114 36 -7 60 c-12 113 -125 710 -165 870 -51 207
-93 333 -195 585 -208 515 -399 903 -658 1335 -95 160 -468 728 -473 722 -2
-2 21 -72 52 -157 156 -432 305 -1044 326 -1337 15 -206 23 -197 -172 -190
-124 4 -165 10 -282 41 -271 70 -449 153 -640 296 -107 81 -263 234 -360 356
-304 377 -576 1003 -713 1639 -44 206 -99 516 -119 671 -23 177 -47 489 -40
509 12 30 51 36 163 25 307 -31 408 -45 641 -86 448 -78 541 -100 795 -185
486 -163 726 -269 965 -426 394 -260 621 -508 756 -828 173 -409 204 -842 90
-1244 -61 -212 -61 -216 30 -362 117 -187 218 -417 359 -814 31 -88 62 -166
70 -174 16 -17 16 -17 124 139 44 63 130 176 191 250 61 74 116 145 122 158 9
17 7 43 -10 115 -34 151 -45 261 -39 407 8 199 46 355 133 535 116 243 287
432 554 614 308 210 572 320 1065 446 375 96 578 132 933 166 169 16 159 31
144 -208 -26 -393 -35 -454 -123 -813 -157 -636 -358 -1042 -669 -1350 -227
-224 -444 -337 -770 -401 -134 -26 -288 -31 -313 -10 -26 21 -21 83 17 233 79
315 190 543 442 915 68 100 124 185 124 188 0 4 -12 -1 -27 -10 -163 -105
-488 -458 -739 -805 -180 -248 -254 -365 -470 -745 -232 -408 -293 -549 -394
-917 -35 -129 -46 -184 -38 -189 6 -4 31 -10 55 -14 86 -13 270 -77 388 -136
206 -102 410 -266 551 -444 l66 -84 2512 -1312 c1381 -722 2535 -1326 2565
-1343 l55 -31 59 120 c81 163 172 370 241 545 l57 146 1616 614 c889 338 1621
620 1628 625 10 8 12 278 7 1286 l-5 1275 -1642 624 -1642 623 -58 141 c-32
78 -65 159 -73 181 l-15 40 723 1640 c397 902 724 1643 726 1646 5 10 -1827
1794 -1840 1791 -6 -2 -730 -332 -1608 -734 l-1597 -730 -148 63 c-81 34 -210
86 -286 115 -76 28 -142 56 -147 60 -4 5 -272 707 -595 1559 -323 853 -591
1553 -594 1556 -3 4 -581 9 -1284 12 l-1278 6 -10 -27z" fill="#ffc222"/>
<path d="M9702 5563 c-133 -1929 -245 -3520 -247 -3535 -4 -24 1 -30 43 -48
152 -68 368 -101 535 -83 105 12 235 45 321 82 l49 21 -6 63 c-3 34 -103 1617
-222 3517 -119 1900 -220 3463 -223 3473 -4 10 -117 -1560 -250 -3490z" fill="#386633"/>
<path d="M6975 6585 c-1221 -1191 -2262 -2209 -2313 -2263 l-93 -97 17 -45
c36 -99 140 -283 213 -381 98 -131 250 -277 372 -358 95 -64 258 -151 281
-151 7 1 42 43 78 96 465 679 3622 5281 3647 5317 19 26 31 47 26 47 -4 0
-1007 -975 -2228 -2165z" fill="#386633"/>
<path d="M10636 8673 c49 -76 3672 -5361 3687 -5378 9 -11 23 -29 31 -39 13
-19 15 -19 57 -3 202 77 480 305 632 517 66 93 205 355 210 396 1 16 -540 550
-2311 2277 -1272 1242 -2315 2257 -2319 2257 -3 0 3 -12 13 -27z" fill="#386633"/>
</g>
</svg>
