<?xml version="1.0" standalone="no"?>
<!DOCTYPE svg PUBLIC "-//W3C//DTD SVG 20010904//EN"
 "http://www.w3.org/TR/2001/REC-SVG-20010904/DTD/svg10.dtd">
<svg version="1.0" xmlns="http://www.w3.org/2000/svg"
 width="1280.000000pt" height="129.000000pt" viewBox="0 0 1280.000000 129.000000"
 preserveAspectRatio="xMidYMid meet">

<g transform="translate(0.000000,129.000000) scale(0.100000,-0.100000)"
fill="#376633" stroke="none">
<path d="M2540 1280 c-905 -46 -1725 -179 -2407 -392 l-133 -41 0 -424 0 -423
6400 0 6400 0 0 420 c0 231 -2 420 -3 420 -2 0 -30 -9 -63 -20 -199 -69 -558
-160 -882 -224 -509 -100 -1007 -159 -1577 -187 -273 -13 -1050 -7 -1295 10
-914 65 -1625 181 -2565 421 -979 250 -1723 371 -2645 430 -221 14 -1012 21
-1230 10z"/>
</g>
</svg>
